<?xml version="1.0" encoding="UTF-8" standalone="no"?>
<svg
   xmlns:dc="http://purl.org/dc/elements/1.1/"
   xmlns:cc="http://creativecommons.org/ns#"
   xmlns:rdf="http://www.w3.org/1999/02/22-rdf-syntax-ns#"
   xmlns:svg="http://www.w3.org/2000/svg"
   xmlns="http://www.w3.org/2000/svg"
   viewBox="0 0 1000 1000"
   height="1000"
   width="1000"
   xml:space="preserve"
   version="1.1"
   id="svg2"><metadata
     id="metadata8"><rdf:RDF><cc:Work
         rdf:about=""><dc:format>image/svg+xml</dc:format><dc:type
           rdf:resource="http://purl.org/dc/dcmitype/StillImage" /><dc:title></dc:title></cc:Work></rdf:RDF></metadata><defs
     id="defs6"><clipPath
       id="clipPath18"
       clipPathUnits="userSpaceOnUse"><path
         id="path20"
         d="M 0,800 800,800 800,0 0,0 0,800 Z" /></clipPath><clipPath
       id="clipPath34"
       clipPathUnits="userSpaceOnUse"><path
         id="path36"
         d="M 0,800 800,800 800,0 0,0 0,800 Z" /></clipPath><clipPath
       id="clipPath50"
       clipPathUnits="userSpaceOnUse"><path
         id="path52"
         d="M 0,800 800,800 800,0 0,0 0,800 Z" /></clipPath></defs><g
     transform="matrix(1.25,0,0,-1.25,0,1000)"
     id="g10"><g
       id="g14"><g
         clip-path="url(#clipPath18)"
         id="g16"><g
           transform="translate(594.7929,384.1935)"
           id="g22"><path
             id="path24"
             style="fill:#ff5345;fill-opacity:1;fill-rule:nonzero;stroke:none"
             d="m 0,0 c 0,-107.585 -87.216,-194.793 -194.793,-194.793 -107.577,0 -194.793,87.208 -194.793,194.793 0,76.128 43.682,142.056 107.344,174.097 4.088,2.063 8.261,3.978 12.505,5.746 23.071,9.624 48.385,14.942 74.944,14.942 C -87.216,194.785 0,107.577 0,0" /></g></g></g><g
       id="g30"><g
         clip-path="url(#clipPath34)"
         id="g32"><g
           transform="translate(800,144.6427)"
           id="g38"><path
             id="path40"
             style="fill:#253664;fill-opacity:1;fill-rule:nonzero;stroke:none"
             d="m 0,0 c -147.289,23.17 -280.593,81.427 -307.042,95.606 -37.046,19.861 -57.575,28.981 -77.112,40.14 -1.809,1.033 -4.03,1.598 -6.325,1.598 l -19.04,0 c -2.295,0 -4.516,-0.565 -6.325,-1.598 -21.432,-12.241 -44.057,-23.623 -88.367,-45.994 C -529.134,77.169 -667.272,19.17 -800,-0.962 l 0,-144.868 800,0 L 0,0 Z" /></g><g
           transform="translate(295.7858,234.3984)"
           id="g42"><path
             id="path44"
             style="fill:#ffffff;fill-opacity:1;fill-rule:nonzero;stroke:none"
             d="M 0,0 C 3.127,0.005 9.394,0.343 15.663,2.617 L 21.186,-0.002 46.085,14.042 40.691,7.019 55.216,14.042 52.31,7.019 68.495,18.013 50.236,-1.918 c 0,0 26.144,3.845 33.199,6.916 7.056,3.071 25.958,3.023 38.087,0 12.129,-3.022 -4.886,13.015 -4.886,13.015 l 25.73,-13.015 -10.79,9.044 26.559,-10.784 -13.279,10.784 9.96,-3.727 10.789,-7.378 -9.544,11.105 -3.735,3.971 -6.225,10.264 c 0,0 16.537,-15.129 33.615,-23.279 l -16.634,13.015 c 0,0 14.684,-9.301 33.711,-16.358 l -10.551,7.056 10.935,-2.858 c -10.777,5.777 -20.162,11.31 -28.525,16.526 -19.461,10.916 -32.318,20.643 -43.213,28.262 -1.816,1.116 -3.612,2.186 -5.4,3.207 -1.802,1.03 -4.019,1.587 -6.305,1.587 l -19.038,0 c -2.287,0 -4.504,-0.558 -6.305,-1.587 C 86.594,52.822 84.788,51.746 82.963,50.624 72.075,43.009 59.228,33.291 39.791,22.387 33.182,18.266 2.743,1.385 0,0" /></g></g></g></g></svg>